<svg width="288" height="183" viewBox="0 0 288 183" fill="none" xmlns="http://www.w3.org/2000/svg">
<line y1="10" x2="76" y2="10" stroke="white" stroke-width="2"/>
<line x1="1" y1="11" x2="1" y2="172" stroke="white" stroke-width="2"/>
<path d="M82.9922 45C82.7578 45 82.5625 44.8594 82.4062 44.5781C82.2656 44.2969 82.1953 44.0391 82.1953 43.8047C82.1953 43.5391 82.25 43.3359 82.3594 43.1953C82.4688 43.0547 82.6719 42.9688 82.9688 42.9375C85.0781 42.7656 86.1328 42.2656 86.1328 41.4375L86.1562 16.0781C86.1562 15.4531 85.9922 14.9844 85.6641 14.6719C85.3359 14.3594 84.9688 14.1641 84.5625 14.0859C84.1562 13.9922 83.5781 13.8984 82.8281 13.8047C82.4844 13.7734 82.2578 13.7109 82.1484 13.6172C82.0391 13.5078 81.9844 13.2813 81.9844 12.9375C81.9844 12.7031 82.0547 12.4453 82.1953 12.1641C82.3516 11.8828 82.5469 11.7422 82.7812 11.7422H94.8047C95.0391 11.7422 95.2266 11.8828 95.3672 12.1641C95.5234 12.4453 95.6016 12.7031 95.6016 12.9375C95.6016 13.5156 95.3438 13.8047 94.8281 13.8047C93.8438 13.8047 92.9453 13.9766 92.1328 14.3203C91.3359 14.6641 90.9375 15.2266 90.9375 16.0078L90.9141 40.8516C90.9141 41.5547 91.1406 42.0312 91.5938 42.2812C92.0625 42.5156 92.6562 42.6328 93.375 42.6328H100.055C101.039 42.6328 102.008 41.8359 102.961 40.2422C103.93 38.6328 104.758 36.7812 105.445 34.6875C105.617 34.1719 105.992 33.9141 106.57 33.9141C106.883 33.9141 107.125 33.9844 107.297 34.125C107.469 34.25 107.539 34.4453 107.508 34.7109L106.359 44.9766L82.9922 45ZM114.938 45.3398C113.164 45.3398 111.816 44.8008 110.895 43.7227C109.973 42.6445 109.512 41.1172 109.512 39.1406C109.512 37.8828 109.75 36.8008 110.227 35.8945C110.711 34.9805 111.355 34.2891 112.16 33.8203C112.965 33.3516 113.844 33.1172 114.797 33.1172C116.195 33.1172 117.25 33.4688 117.961 34.1719C118.672 34.8672 119.141 35.8633 119.367 37.1602C119.461 37.6914 119.508 38.3398 119.508 39.1055H112.031C112.039 40.2773 112.195 41.2383 112.5 41.9883C112.805 42.7383 113.199 43.2812 113.684 43.6172C114.168 43.9531 114.688 44.1211 115.242 44.1211C115.844 44.1211 116.387 43.9844 116.871 43.7109C117.363 43.4375 117.734 43.0547 117.984 42.5625C117.992 42.5469 118.004 42.5195 118.02 42.4805C118.043 42.4336 118.066 42.4023 118.09 42.3867C118.121 42.3711 118.16 42.3672 118.207 42.375L118.793 42.6445C118.879 42.6758 118.922 42.7227 118.922 42.7852C118.922 42.8164 118.898 42.8789 118.852 42.9727C118.484 43.707 117.977 44.2852 117.328 44.707C116.688 45.1289 115.891 45.3398 114.938 45.3398ZM116.906 38.0273C116.906 36.7383 116.711 35.7852 116.32 35.168C115.938 34.5508 115.426 34.2422 114.785 34.2422C114.168 34.2422 113.676 34.3398 113.309 34.5352C112.941 34.7227 112.648 35.0938 112.43 35.6484C112.219 36.2031 112.094 37.0195 112.055 38.0977L116.906 38.0273ZM121.441 45C121.316 45 121.219 44.9492 121.148 44.8477C121.078 44.7383 121.043 44.6289 121.043 44.5195C121.043 44.3867 121.07 44.2852 121.125 44.2148C121.18 44.1445 121.281 44.1016 121.43 44.0859C122.266 43.9844 122.684 43.7344 122.684 43.3359V34.3711H121.242C121.156 34.3633 121.086 34.3203 121.031 34.2422C120.984 34.1641 120.961 34.0742 120.961 33.9727C120.961 33.7148 121.055 33.5469 121.242 33.4688L122.672 33.3516L122.684 31.6172C122.691 30.6406 122.879 29.7695 123.246 29.0039C123.613 28.2383 124.113 27.6406 124.746 27.2109C125.379 26.7812 126.078 26.5664 126.844 26.5664C127.562 26.5664 128.117 26.7148 128.508 27.0117C128.898 27.3086 129.094 27.6758 129.094 28.1133C129.094 28.4023 129.02 28.668 128.871 28.9102C128.73 29.1445 128.559 29.3281 128.355 29.4609C128.152 29.5938 127.977 29.6602 127.828 29.6602C127.766 29.6602 127.723 29.6484 127.699 29.625L126.422 27.7148C126.195 27.7148 125.977 27.7656 125.766 27.8672C125.562 27.9688 125.359 28.2812 125.156 28.8047C124.961 29.3281 124.863 30.1406 124.863 31.2422V33.3516H127.324C127.41 33.3594 127.477 33.4023 127.523 33.4805C127.578 33.5586 127.605 33.6484 127.605 33.75C127.605 33.8984 127.578 34.0312 127.523 34.1484C127.477 34.2578 127.41 34.332 127.324 34.3711H124.863V42.9492C124.863 43.2539 124.965 43.4844 125.168 43.6406C125.379 43.7969 125.602 43.8984 125.836 43.9453C126.07 43.9922 126.414 44.0391 126.867 44.0859C127.039 44.1016 127.152 44.1367 127.207 44.1914C127.262 44.2383 127.289 44.3477 127.289 44.5195C127.289 44.6289 127.254 44.7383 127.184 44.8477C127.113 44.9492 127.016 45 126.891 45H121.441ZM133.078 45.3516C132.031 45.3516 131.27 45.1172 130.793 44.6484C130.324 44.1719 130.09 43.418 130.09 42.3867V34.3711H128.742C128.656 34.3633 128.586 34.3203 128.531 34.2422C128.484 34.1641 128.461 34.0742 128.461 33.9727C128.461 33.8242 128.488 33.7031 128.543 33.6094C128.605 33.5156 128.688 33.4688 128.789 33.4688L128.895 33.457C129.355 33.4023 129.738 33.2695 130.043 33.0586C130.348 32.8398 130.609 32.5 130.828 32.0391C131.047 31.5781 131.246 30.9453 131.426 30.1406C131.449 30.0312 131.5 29.9609 131.578 29.9297C131.656 29.8906 131.773 29.8711 131.93 29.8711C132.078 29.8711 132.172 29.8906 132.211 29.9297C132.25 29.9609 132.27 30.0352 132.27 30.1523V33.3516H135.727C135.812 33.3594 135.879 33.4023 135.926 33.4805C135.98 33.5586 136.008 33.6484 136.008 33.75C136.008 33.9141 135.973 34.0586 135.902 34.1836C135.84 34.3086 135.766 34.3711 135.68 34.3711H132.27V41.5312C132.27 42.4297 132.395 43.0586 132.645 43.418C132.895 43.7773 133.203 43.957 133.57 43.957C133.906 43.957 134.199 43.9336 134.449 43.8867C134.699 43.832 134.906 43.7734 135.07 43.7109C135.234 43.6406 135.473 43.5312 135.785 43.3828C135.98 43.5781 136.113 43.8125 136.184 44.0859C136.035 44.2422 135.781 44.4219 135.422 44.625C135.07 44.8203 134.68 44.9883 134.25 45.1289C133.828 45.2773 133.438 45.3516 133.078 45.3516ZM137.625 45C137.5 45 137.402 44.9492 137.332 44.8477C137.262 44.7383 137.227 44.6289 137.227 44.5195C137.227 44.3867 137.254 44.2852 137.309 44.2148C137.363 44.1445 137.465 44.1016 137.613 44.0859C138.512 43.9766 138.961 43.7266 138.961 43.3359L138.973 35.8828C138.973 35.5156 138.906 35.2344 138.773 35.0391C138.641 34.8438 138.484 34.7148 138.305 34.6523C138.125 34.5898 137.891 34.5352 137.602 34.4883C137.562 34.4805 137.504 34.4727 137.426 34.4648C137.348 34.4492 137.281 34.4336 137.227 34.418C137.133 34.3789 137.062 34.3242 137.016 34.2539C136.969 34.1836 136.945 34.082 136.945 33.9492C136.945 33.8398 136.969 33.7305 137.016 33.6211C137.07 33.5039 137.141 33.4414 137.227 33.4336C138.523 33.3555 139.715 33.3164 140.801 33.3164C140.879 33.3164 140.953 33.3516 141.023 33.4219C141.094 33.4922 141.137 33.6133 141.152 33.7852V42.9492C141.152 43.2617 141.223 43.4961 141.363 43.6523C141.512 43.8086 141.68 43.9141 141.867 43.9688C142.062 44.0156 142.301 44.0547 142.582 44.0859C142.754 44.1016 142.867 44.1367 142.922 44.1914C142.977 44.2383 143.004 44.3477 143.004 44.5195C143.004 44.6211 142.965 44.7266 142.887 44.8359C142.816 44.9453 142.723 45 142.605 45H137.625ZM140.027 31.2539C139.605 31.2539 139.262 31.1016 138.996 30.7969C138.738 30.4844 138.609 30.0938 138.609 29.625C138.609 29.1562 138.738 28.7695 138.996 28.4648C139.262 28.1523 139.605 27.9961 140.027 27.9961C140.449 27.9961 140.789 28.1523 141.047 28.4648C141.312 28.7695 141.445 29.1562 141.445 29.625C141.445 30.0938 141.312 30.4844 141.047 30.7969C140.789 31.1016 140.449 31.2539 140.027 31.2539ZM148.582 45.3281C148.129 45.3281 147.754 45.2969 147.457 45.2344C147.16 45.1719 146.848 45.0859 146.52 44.9766C146.371 44.9219 146.285 44.8906 146.262 44.8828C145.934 44.7812 145.699 44.7305 145.559 44.7305C145.465 44.7305 145.355 44.7539 145.23 44.8008C145.121 44.8555 145 44.8828 144.867 44.8828C144.727 44.8828 144.613 44.8477 144.527 44.7773C144.441 44.707 144.398 44.6094 144.398 44.4844C144.398 44.0625 144.367 43.4297 144.305 42.5859C144.258 41.8984 144.234 41.4688 144.234 41.2969C144.234 41.125 144.273 41 144.352 40.9219C144.43 40.8359 144.523 40.793 144.633 40.793C144.727 40.793 144.809 40.8164 144.879 40.8633C144.949 40.9102 144.996 40.9727 145.02 41.0508C145.027 41.0898 145.055 41.1953 145.102 41.3672C145.148 41.5391 145.227 41.7539 145.336 42.0117C145.445 42.2695 145.59 42.5703 145.77 42.9141C146.051 43.4219 146.434 43.7852 146.918 44.0039C147.402 44.2227 147.906 44.332 148.43 44.332C149.141 44.332 149.723 44.1836 150.176 43.8867C150.629 43.5898 150.855 43.1758 150.855 42.6445C150.855 42.2773 150.75 41.9609 150.539 41.6953C150.336 41.4297 150.082 41.207 149.777 41.0273C149.473 40.8477 149.055 40.6328 148.523 40.3828C148.18 40.2266 147.922 40.1055 147.75 40.0195C147.117 39.6992 146.59 39.3867 146.168 39.082C145.746 38.7695 145.402 38.3828 145.137 37.9219C144.871 37.4531 144.738 36.8867 144.738 36.2227C144.738 35.5664 144.934 35.0039 145.324 34.5352C145.723 34.0664 146.219 33.7148 146.812 33.4805C147.406 33.2383 148 33.1172 148.594 33.1172C149.023 33.1172 149.379 33.1484 149.66 33.2109C149.941 33.2656 150.238 33.3438 150.551 33.4453C150.645 33.4766 150.734 33.5078 150.82 33.5391C150.906 33.5625 150.98 33.5742 151.043 33.5742C151.16 33.5742 151.238 33.5547 151.277 33.5156C151.324 33.4688 151.359 33.4141 151.383 33.3516C151.406 33.2812 151.43 33.2266 151.453 33.1875C151.547 33.0234 151.672 32.9414 151.828 32.9414C151.93 32.9414 152.02 32.9805 152.098 33.0586C152.176 33.1289 152.215 33.2266 152.215 33.3516C152.215 33.4453 152.211 33.5352 152.203 33.6211C152.188 34.0117 152.18 34.4258 152.18 34.8633C152.18 35.0898 152.188 35.3125 152.203 35.5312C152.219 35.7422 152.227 35.8867 152.227 35.9648L152.25 36.293C152.25 36.4414 152.219 36.5508 152.156 36.6211C152.094 36.6914 152.016 36.7266 151.922 36.7266C151.844 36.7266 151.77 36.7109 151.699 36.6797C151.629 36.6406 151.586 36.5938 151.57 36.5391C151.367 36.0625 151.168 35.668 150.973 35.3555C150.785 35.0352 150.5 34.75 150.117 34.5C149.734 34.25 149.242 34.125 148.641 34.125C148.008 34.125 147.52 34.2656 147.176 34.5469C146.84 34.8203 146.672 35.1992 146.672 35.6836C146.672 36.0195 146.793 36.3242 147.035 36.5977C147.277 36.8633 147.578 37.1016 147.938 37.3125C148.305 37.5234 148.812 37.7891 149.461 38.1094C150.234 38.4766 150.855 38.8086 151.324 39.1055C151.801 39.4023 152.195 39.7617 152.508 40.1836C152.82 40.6055 152.977 41.1055 152.977 41.6836C152.977 42.4102 152.801 43.0508 152.449 43.6055C152.105 44.1523 151.602 44.5781 150.938 44.8828C150.281 45.1797 149.496 45.3281 148.582 45.3281ZM158.789 45.3516C157.742 45.3516 156.98 45.1172 156.504 44.6484C156.035 44.1719 155.801 43.418 155.801 42.3867V34.3711H154.453C154.367 34.3633 154.297 34.3203 154.242 34.2422C154.195 34.1641 154.172 34.0742 154.172 33.9727C154.172 33.8242 154.199 33.7031 154.254 33.6094C154.316 33.5156 154.398 33.4688 154.5 33.4688L154.605 33.457C155.066 33.4023 155.449 33.2695 155.754 33.0586C156.059 32.8398 156.32 32.5 156.539 32.0391C156.758 31.5781 156.957 30.9453 157.137 30.1406C157.16 30.0312 157.211 29.9609 157.289 29.9297C157.367 29.8906 157.484 29.8711 157.641 29.8711C157.789 29.8711 157.883 29.8906 157.922 29.9297C157.961 29.9609 157.98 30.0352 157.98 30.1523V33.3516H161.438C161.523 33.3594 161.59 33.4023 161.637 33.4805C161.691 33.5586 161.719 33.6484 161.719 33.75C161.719 33.9141 161.684 34.0586 161.613 34.1836C161.551 34.3086 161.477 34.3711 161.391 34.3711H157.98V41.5312C157.98 42.4297 158.105 43.0586 158.355 43.418C158.605 43.7773 158.914 43.957 159.281 43.957C159.617 43.957 159.91 43.9336 160.16 43.8867C160.41 43.832 160.617 43.7734 160.781 43.7109C160.945 43.6406 161.184 43.5312 161.496 43.3828C161.691 43.5781 161.824 43.8125 161.895 44.0859C161.746 44.2422 161.492 44.4219 161.133 44.625C160.781 44.8203 160.391 44.9883 159.961 45.1289C159.539 45.2773 159.148 45.3516 158.789 45.3516ZM73.3008 106C73.0664 106 72.8711 105.859 72.7148 105.578C72.5742 105.297 72.5039 105.039 72.5039 104.805C72.5039 104.539 72.5586 104.336 72.668 104.195C72.7773 104.055 72.9805 103.969 73.2773 103.938C75.6992 103.75 76.9102 103.094 76.9102 101.969V77.0781C76.9102 76.4688 76.7148 76.0078 76.3242 75.6953C75.9336 75.3828 75.5195 75.1797 75.082 75.0859C74.6445 74.9922 73.9961 74.8984 73.1367 74.8047C72.793 74.7734 72.5664 74.7109 72.457 74.6172C72.3477 74.5078 72.293 74.2812 72.293 73.9375C72.293 73.7031 72.3633 73.4453 72.5039 73.1641C72.6602 72.8828 72.8555 72.7422 73.0898 72.7422H81.0117L99.2227 98.6641H99.5039V77.0781C99.5039 76.4688 99.2695 76.0078 98.8008 75.6953C98.3477 75.3828 97.8945 75.1875 97.4414 75.1094C96.9883 75.0156 96.2695 74.9141 95.2852 74.8047C94.9414 74.7734 94.7148 74.7109 94.6055 74.6172C94.4961 74.5078 94.4414 74.2812 94.4414 73.9375C94.4414 73.7031 94.5117 73.4453 94.6523 73.1641C94.8086 72.8828 95.0039 72.7422 95.2383 72.7422H105.902C106.137 72.7422 106.324 72.8828 106.465 73.1641C106.621 73.4453 106.699 73.7031 106.699 73.9375C106.699 74.2031 106.645 74.4062 106.535 74.5469C106.426 74.6875 106.223 74.7734 105.926 74.8047C105.801 74.8203 105.34 74.8672 104.543 74.9453C103.746 75.0234 103.09 75.25 102.574 75.625C102.074 75.9844 101.824 76.4688 101.824 77.0781V103.352C101.824 103.633 101.848 103.93 101.895 104.242L101.965 105.062C102.012 105.656 101.887 106.078 101.59 106.328C101.309 106.578 100.965 106.703 100.559 106.703C100.324 106.703 100.082 106.648 99.832 106.539C99.5977 106.445 99.418 106.328 99.293 106.188L79.6289 78.9531H79.2305V101.664C79.2305 102.273 79.4414 102.734 79.8633 103.047C80.2852 103.359 80.7227 103.562 81.1758 103.656C81.6289 103.734 82.3086 103.828 83.2148 103.938C83.5586 103.969 83.7852 104.039 83.8945 104.148C84.0039 104.242 84.0586 104.461 84.0586 104.805C84.0586 105.039 83.9805 105.297 83.8242 105.578C83.6836 105.859 83.4961 106 83.2617 106H73.3008ZM114.129 106.34C112.355 106.34 111.008 105.801 110.086 104.723C109.164 103.645 108.703 102.117 108.703 100.141C108.703 98.8828 108.941 97.8008 109.418 96.8945C109.902 95.9805 110.547 95.2891 111.352 94.8203C112.156 94.3516 113.035 94.1172 113.988 94.1172C115.387 94.1172 116.441 94.4688 117.152 95.1719C117.863 95.8672 118.332 96.8633 118.559 98.1602C118.652 98.6914 118.699 99.3398 118.699 100.105H111.223C111.23 101.277 111.387 102.238 111.691 102.988C111.996 103.738 112.391 104.281 112.875 104.617C113.359 104.953 113.879 105.121 114.434 105.121C115.035 105.121 115.578 104.984 116.062 104.711C116.555 104.438 116.926 104.055 117.176 103.562C117.184 103.547 117.195 103.52 117.211 103.48C117.234 103.434 117.258 103.402 117.281 103.387C117.312 103.371 117.352 103.367 117.398 103.375L117.984 103.645C118.07 103.676 118.113 103.723 118.113 103.785C118.113 103.816 118.09 103.879 118.043 103.973C117.676 104.707 117.168 105.285 116.52 105.707C115.879 106.129 115.082 106.34 114.129 106.34ZM116.098 99.0273C116.098 97.7383 115.902 96.7852 115.512 96.168C115.129 95.5508 114.617 95.2422 113.977 95.2422C113.359 95.2422 112.867 95.3398 112.5 95.5352C112.133 95.7227 111.84 96.0938 111.621 96.6484C111.41 97.2031 111.285 98.0195 111.246 99.0977L116.098 99.0273ZM120.762 96.2852C120.543 95.918 120.324 95.6641 120.105 95.5234C119.895 95.3828 119.637 95.2969 119.332 95.2656C119.16 95.25 119.047 95.2188 118.992 95.1719C118.938 95.1172 118.91 95.0039 118.91 94.832C118.91 94.7305 118.949 94.625 119.027 94.5156C119.098 94.4062 119.191 94.3516 119.309 94.3516H124.055C124.18 94.3516 124.277 94.4062 124.348 94.5156C124.418 94.6172 124.453 94.7227 124.453 94.832C124.453 94.9648 124.426 95.0664 124.371 95.1367C124.316 95.207 124.215 95.25 124.066 95.2656C123.77 95.3047 123.547 95.3398 123.398 95.3711C123.25 95.3945 123.117 95.4492 123 95.5352C122.883 95.6211 122.824 95.7422 122.824 95.8984L125.344 102.777L128.039 94.5625H129.164L132.152 102.742L134.508 95.8984C134.508 95.7422 134.43 95.6211 134.273 95.5352C134.125 95.4492 133.977 95.3945 133.828 95.3711C133.68 95.3477 133.414 95.3125 133.031 95.2656C132.883 95.25 132.781 95.207 132.727 95.1367C132.672 95.0664 132.645 94.9648 132.645 94.832C132.645 94.7227 132.68 94.6172 132.75 94.5156C132.82 94.4062 132.918 94.3516 133.043 94.3516H136.852C136.969 94.3516 137.062 94.4062 137.133 94.5156C137.211 94.625 137.25 94.7305 137.25 94.832C137.25 95.0039 137.223 95.1172 137.168 95.1719C137.113 95.2188 137 95.25 136.828 95.2656C136.539 95.2969 136.305 95.3789 136.125 95.5117C135.953 95.6445 135.75 95.9023 135.516 96.2852L132.035 106.105H131.168L128.062 97.668L125.215 106.105H124.348L120.762 96.2852ZM142.336 106.328C141.883 106.328 141.508 106.297 141.211 106.234C140.914 106.172 140.602 106.086 140.273 105.977C140.125 105.922 140.039 105.891 140.016 105.883C139.688 105.781 139.453 105.73 139.312 105.73C139.219 105.73 139.109 105.754 138.984 105.801C138.875 105.855 138.754 105.883 138.621 105.883C138.48 105.883 138.367 105.848 138.281 105.777C138.195 105.707 138.152 105.609 138.152 105.484C138.152 105.062 138.121 104.43 138.059 103.586C138.012 102.898 137.988 102.469 137.988 102.297C137.988 102.125 138.027 102 138.105 101.922C138.184 101.836 138.277 101.793 138.387 101.793C138.48 101.793 138.562 101.816 138.633 101.863C138.703 101.91 138.75 101.973 138.773 102.051C138.781 102.09 138.809 102.195 138.855 102.367C138.902 102.539 138.98 102.754 139.09 103.012C139.199 103.27 139.344 103.57 139.523 103.914C139.805 104.422 140.188 104.785 140.672 105.004C141.156 105.223 141.66 105.332 142.184 105.332C142.895 105.332 143.477 105.184 143.93 104.887C144.383 104.59 144.609 104.176 144.609 103.645C144.609 103.277 144.504 102.961 144.293 102.695C144.09 102.43 143.836 102.207 143.531 102.027C143.227 101.848 142.809 101.633 142.277 101.383C141.934 101.227 141.676 101.105 141.504 101.02C140.871 100.699 140.344 100.387 139.922 100.082C139.5 99.7695 139.156 99.3828 138.891 98.9219C138.625 98.4531 138.492 97.8867 138.492 97.2227C138.492 96.5664 138.688 96.0039 139.078 95.5352C139.477 95.0664 139.973 94.7148 140.566 94.4805C141.16 94.2383 141.754 94.1172 142.348 94.1172C142.777 94.1172 143.133 94.1484 143.414 94.2109C143.695 94.2656 143.992 94.3438 144.305 94.4453C144.398 94.4766 144.488 94.5078 144.574 94.5391C144.66 94.5625 144.734 94.5742 144.797 94.5742C144.914 94.5742 144.992 94.5547 145.031 94.5156C145.078 94.4688 145.113 94.4141 145.137 94.3516C145.16 94.2812 145.184 94.2266 145.207 94.1875C145.301 94.0234 145.426 93.9414 145.582 93.9414C145.684 93.9414 145.773 93.9805 145.852 94.0586C145.93 94.1289 145.969 94.2266 145.969 94.3516C145.969 94.4453 145.965 94.5352 145.957 94.6211C145.941 95.0117 145.934 95.4258 145.934 95.8633C145.934 96.0898 145.941 96.3125 145.957 96.5312C145.973 96.7422 145.98 96.8867 145.98 96.9648L146.004 97.293C146.004 97.4414 145.973 97.5508 145.91 97.6211C145.848 97.6914 145.77 97.7266 145.676 97.7266C145.598 97.7266 145.523 97.7109 145.453 97.6797C145.383 97.6406 145.34 97.5938 145.324 97.5391C145.121 97.0625 144.922 96.668 144.727 96.3555C144.539 96.0352 144.254 95.75 143.871 95.5C143.488 95.25 142.996 95.125 142.395 95.125C141.762 95.125 141.273 95.2656 140.93 95.5469C140.594 95.8203 140.426 96.1992 140.426 96.6836C140.426 97.0195 140.547 97.3242 140.789 97.5977C141.031 97.8633 141.332 98.1016 141.691 98.3125C142.059 98.5234 142.566 98.7891 143.215 99.1094C143.988 99.4766 144.609 99.8086 145.078 100.105C145.555 100.402 145.949 100.762 146.262 101.184C146.574 101.605 146.73 102.105 146.73 102.684C146.73 103.41 146.555 104.051 146.203 104.605C145.859 105.152 145.355 105.578 144.691 105.883C144.035 106.18 143.25 106.328 142.336 106.328ZM55.9336 167C55.6992 167 55.5039 166.859 55.3477 166.578C55.207 166.297 55.1367 166.039 55.1367 165.805C55.1367 165.539 55.1914 165.336 55.3008 165.195C55.4102 165.055 55.6133 164.969 55.9102 164.938C58.332 164.75 59.543 164.094 59.543 162.969V138.078C59.543 137.469 59.3477 137.008 58.957 136.695C58.5664 136.383 58.1523 136.18 57.7148 136.086C57.2773 135.992 56.6289 135.898 55.7695 135.805C55.4258 135.773 55.1992 135.711 55.0898 135.617C54.9805 135.508 54.9258 135.281 54.9258 134.938C54.9258 134.703 54.9961 134.445 55.1367 134.164C55.293 133.883 55.4883 133.742 55.7227 133.742H63.6445L81.8555 159.664H82.1367V138.078C82.1367 137.469 81.9023 137.008 81.4336 136.695C80.9805 136.383 80.5273 136.188 80.0742 136.109C79.6211 136.016 78.9023 135.914 77.918 135.805C77.5742 135.773 77.3477 135.711 77.2383 135.617C77.1289 135.508 77.0742 135.281 77.0742 134.938C77.0742 134.703 77.1445 134.445 77.2852 134.164C77.4414 133.883 77.6367 133.742 77.8711 133.742H88.5352C88.7695 133.742 88.957 133.883 89.0977 134.164C89.2539 134.445 89.332 134.703 89.332 134.938C89.332 135.203 89.2773 135.406 89.168 135.547C89.0586 135.688 88.8555 135.773 88.5586 135.805C88.4336 135.82 87.9727 135.867 87.1758 135.945C86.3789 136.023 85.7227 136.25 85.207 136.625C84.707 136.984 84.457 137.469 84.457 138.078V164.352C84.457 164.633 84.4805 164.93 84.5273 165.242L84.5977 166.062C84.6445 166.656 84.5195 167.078 84.2227 167.328C83.9414 167.578 83.5977 167.703 83.1914 167.703C82.957 167.703 82.7148 167.648 82.4648 167.539C82.2305 167.445 82.0508 167.328 81.9258 167.188L62.2617 139.953H61.8633V162.664C61.8633 163.273 62.0742 163.734 62.4961 164.047C62.918 164.359 63.3555 164.562 63.8086 164.656C64.2617 164.734 64.9414 164.828 65.8477 164.938C66.1914 164.969 66.418 165.039 66.5273 165.148C66.6367 165.242 66.6914 165.461 66.6914 165.805C66.6914 166.039 66.6133 166.297 66.457 166.578C66.3164 166.859 66.1289 167 65.8945 167H55.9336ZM96.7617 167.34C94.9883 167.34 93.6406 166.801 92.7188 165.723C91.7969 164.645 91.3359 163.117 91.3359 161.141C91.3359 159.883 91.5742 158.801 92.0508 157.895C92.5352 156.98 93.1797 156.289 93.9844 155.82C94.7891 155.352 95.668 155.117 96.6211 155.117C98.0195 155.117 99.0742 155.469 99.7852 156.172C100.496 156.867 100.965 157.863 101.191 159.16C101.285 159.691 101.332 160.34 101.332 161.105H93.8555C93.8633 162.277 94.0195 163.238 94.3242 163.988C94.6289 164.738 95.0234 165.281 95.5078 165.617C95.9922 165.953 96.5117 166.121 97.0664 166.121C97.668 166.121 98.2109 165.984 98.6953 165.711C99.1875 165.438 99.5586 165.055 99.8086 164.562C99.8164 164.547 99.8281 164.52 99.8438 164.48C99.8672 164.434 99.8906 164.402 99.9141 164.387C99.9453 164.371 99.9844 164.367 100.031 164.375L100.617 164.645C100.703 164.676 100.746 164.723 100.746 164.785C100.746 164.816 100.723 164.879 100.676 164.973C100.309 165.707 99.8008 166.285 99.1523 166.707C98.5117 167.129 97.7148 167.34 96.7617 167.34ZM98.7305 160.027C98.7305 158.738 98.5352 157.785 98.1445 157.168C97.7617 156.551 97.25 156.242 96.6094 156.242C95.9922 156.242 95.5 156.34 95.1328 156.535C94.7656 156.723 94.4727 157.094 94.2539 157.648C94.043 158.203 93.918 159.02 93.8789 160.098L98.7305 160.027ZM107.098 167.352C106.051 167.352 105.289 167.117 104.812 166.648C104.344 166.172 104.109 165.418 104.109 164.387V156.371H102.762C102.676 156.363 102.605 156.32 102.551 156.242C102.504 156.164 102.48 156.074 102.48 155.973C102.48 155.824 102.508 155.703 102.562 155.609C102.625 155.516 102.707 155.469 102.809 155.469L102.914 155.457C103.375 155.402 103.758 155.27 104.062 155.059C104.367 154.84 104.629 154.5 104.848 154.039C105.066 153.578 105.266 152.945 105.445 152.141C105.469 152.031 105.52 151.961 105.598 151.93C105.676 151.891 105.793 151.871 105.949 151.871C106.098 151.871 106.191 151.891 106.23 151.93C106.27 151.961 106.289 152.035 106.289 152.152V155.352H109.746C109.832 155.359 109.898 155.402 109.945 155.48C110 155.559 110.027 155.648 110.027 155.75C110.027 155.914 109.992 156.059 109.922 156.184C109.859 156.309 109.785 156.371 109.699 156.371H106.289V163.531C106.289 164.43 106.414 165.059 106.664 165.418C106.914 165.777 107.223 165.957 107.59 165.957C107.926 165.957 108.219 165.934 108.469 165.887C108.719 165.832 108.926 165.773 109.09 165.711C109.254 165.641 109.492 165.531 109.805 165.383C110 165.578 110.133 165.812 110.203 166.086C110.055 166.242 109.801 166.422 109.441 166.625C109.09 166.82 108.699 166.988 108.27 167.129C107.848 167.277 107.457 167.352 107.098 167.352ZM111.691 157.285C111.473 156.918 111.254 156.664 111.035 156.523C110.824 156.383 110.566 156.297 110.262 156.266C110.09 156.25 109.977 156.219 109.922 156.172C109.867 156.117 109.84 156.004 109.84 155.832C109.84 155.73 109.879 155.625 109.957 155.516C110.027 155.406 110.121 155.352 110.238 155.352H114.984C115.109 155.352 115.207 155.406 115.277 155.516C115.348 155.617 115.383 155.723 115.383 155.832C115.383 155.965 115.355 156.066 115.301 156.137C115.246 156.207 115.145 156.25 114.996 156.266C114.699 156.305 114.477 156.34 114.328 156.371C114.18 156.395 114.047 156.449 113.93 156.535C113.812 156.621 113.754 156.742 113.754 156.898L116.273 163.777L118.969 155.562H120.094L123.082 163.742L125.438 156.898C125.438 156.742 125.359 156.621 125.203 156.535C125.055 156.449 124.906 156.395 124.758 156.371C124.609 156.348 124.344 156.312 123.961 156.266C123.812 156.25 123.711 156.207 123.656 156.137C123.602 156.066 123.574 155.965 123.574 155.832C123.574 155.723 123.609 155.617 123.68 155.516C123.75 155.406 123.848 155.352 123.973 155.352H127.781C127.898 155.352 127.992 155.406 128.062 155.516C128.141 155.625 128.18 155.73 128.18 155.832C128.18 156.004 128.152 156.117 128.098 156.172C128.043 156.219 127.93 156.25 127.758 156.266C127.469 156.297 127.234 156.379 127.055 156.512C126.883 156.645 126.68 156.902 126.445 157.285L122.965 167.105H122.098L118.992 158.668L116.145 167.105H115.277L111.691 157.285ZM129.023 161.234C129.023 160.102 129.25 159.07 129.703 158.141C130.156 157.211 130.809 156.477 131.66 155.938C132.512 155.391 133.508 155.117 134.648 155.117C135.789 155.117 136.773 155.391 137.602 155.938C138.43 156.477 139.062 157.211 139.5 158.141C139.938 159.062 140.156 160.094 140.156 161.234C140.156 162.367 139.93 163.398 139.477 164.328C139.031 165.258 138.387 165.992 137.543 166.531C136.699 167.07 135.707 167.34 134.566 167.34C133.426 167.34 132.438 167.07 131.602 166.531C130.766 165.992 130.125 165.262 129.68 164.34C129.242 163.41 129.023 162.375 129.023 161.234ZM131.543 161.234C131.543 162.336 131.637 163.25 131.824 163.977C132.012 164.703 132.328 165.262 132.773 165.652C133.227 166.035 133.836 166.227 134.602 166.227C135.367 166.227 135.969 166.035 136.406 165.652C136.852 165.262 137.164 164.703 137.344 163.977C137.523 163.25 137.613 162.336 137.613 161.234C137.613 159.57 137.383 158.324 136.922 157.496C136.469 156.66 135.68 156.242 134.555 156.242C133.789 156.242 133.184 156.438 132.738 156.828C132.301 157.211 131.992 157.766 131.812 158.492C131.633 159.219 131.543 160.133 131.543 161.234ZM142.453 167C142.328 167 142.23 166.949 142.16 166.848C142.09 166.738 142.055 166.629 142.055 166.52C142.055 166.387 142.082 166.285 142.137 166.215C142.191 166.145 142.293 166.102 142.441 166.086C143.348 166 143.801 165.75 143.801 165.336V157.883C143.801 157.516 143.734 157.234 143.602 157.039C143.469 156.844 143.312 156.715 143.133 156.652C142.953 156.59 142.719 156.535 142.43 156.488C142.391 156.48 142.332 156.473 142.254 156.465C142.176 156.449 142.109 156.434 142.055 156.418C141.961 156.379 141.891 156.324 141.844 156.254C141.797 156.184 141.773 156.082 141.773 155.949C141.773 155.84 141.801 155.73 141.855 155.621C141.91 155.504 141.977 155.441 142.055 155.434C142.938 155.379 144.09 155.34 145.512 155.316C145.59 155.316 145.664 155.352 145.734 155.422C145.805 155.492 145.848 155.613 145.863 155.785V157.414C146.324 156.695 146.781 156.133 147.234 155.727C147.688 155.32 148.23 155.117 148.863 155.117C149.543 155.117 150.004 155.27 150.246 155.574C150.496 155.879 150.621 156.277 150.621 156.77C150.621 157.043 150.535 157.277 150.363 157.473C150.191 157.668 149.984 157.816 149.742 157.918C149.508 158.02 149.301 158.07 149.121 158.07L148.008 156.664C147.781 156.664 147.535 156.754 147.27 156.934C147.004 157.113 146.754 157.352 146.52 157.648C146.293 157.945 146.113 158.266 145.98 158.609V164.949C145.98 165.262 146.082 165.496 146.285 165.652C146.496 165.809 146.734 165.914 147 165.969C147.266 166.016 147.598 166.055 147.996 166.086C148.168 166.102 148.281 166.137 148.336 166.191C148.391 166.238 148.418 166.348 148.418 166.52C148.418 166.629 148.383 166.738 148.312 166.848C148.242 166.949 148.145 167 148.02 167H142.453ZM151.652 167C151.527 167 151.43 166.949 151.359 166.848C151.289 166.738 151.254 166.629 151.254 166.52C151.254 166.387 151.281 166.285 151.336 166.215C151.391 166.145 151.492 166.102 151.641 166.086C152.008 166.047 152.324 165.973 152.59 165.863C152.863 165.746 153 165.57 153 165.336V151.309C153 150.941 152.934 150.66 152.801 150.465C152.668 150.27 152.512 150.141 152.332 150.078C152.152 150.016 151.918 149.961 151.629 149.914C151.59 149.906 151.531 149.898 151.453 149.891C151.375 149.875 151.309 149.859 151.254 149.844C151.16 149.805 151.09 149.75 151.043 149.68C150.996 149.609 150.973 149.508 150.973 149.375C150.973 149.266 150.996 149.156 151.043 149.047C151.098 148.93 151.168 148.867 151.254 148.859C152.23 148.805 153.332 148.766 154.559 148.742H154.828C154.906 148.742 154.98 148.777 155.051 148.848C155.121 148.918 155.164 149.039 155.18 149.211V161.504L159.398 157.133C159.516 157.047 159.574 156.965 159.574 156.887C159.574 156.738 159.414 156.625 159.094 156.547C158.773 156.461 158.422 156.406 158.039 156.383C157.898 156.367 157.801 156.316 157.746 156.23C157.699 156.137 157.676 156.02 157.676 155.879C157.676 155.77 157.711 155.656 157.781 155.539C157.859 155.414 157.957 155.352 158.074 155.352H162.844C162.969 155.352 163.066 155.414 163.137 155.539C163.207 155.656 163.242 155.77 163.242 155.879C163.242 156.027 163.207 156.148 163.137 156.242C163.074 156.336 162.98 156.383 162.855 156.383C162.27 156.383 161.539 156.723 160.664 157.402L158.566 159.664L158.754 159.992C159.363 161.078 159.945 162.082 160.5 163.004C161.062 163.926 161.617 164.723 162.164 165.395C162.539 165.855 162.902 166.086 163.254 166.086C163.387 166.086 163.484 166.117 163.547 166.18C163.609 166.242 163.641 166.355 163.641 166.52C163.641 166.629 163.605 166.738 163.535 166.848C163.465 166.949 163.367 167 163.242 167H160.148C159.648 166.148 159.078 165.156 158.438 164.023C157.805 162.891 157.297 161.961 156.914 161.234L155.18 162.992V164.949C155.18 165.262 155.242 165.5 155.367 165.664C155.5 165.82 155.652 165.922 155.824 165.969C156.004 166.016 156.227 166.055 156.492 166.086C156.664 166.102 156.777 166.137 156.832 166.191C156.887 166.238 156.914 166.348 156.914 166.52C156.914 166.621 156.875 166.727 156.797 166.836C156.727 166.945 156.633 167 156.516 167H151.652Z" fill="white"/>
</svg>
